{"glyphs":{"\u0000":{"ha":0,"x_min":0,"x_max":0,"o":""},"\r":{"ha":347,"x_min":0,"x_max":0,"o":""}," ":{"ha":381,"x_min":0,"x_max":0,"o":""},"A":{"ha":817,"x_min":0,"x_max":0,"o":"m 811 42 l 729 832 b 621 938 724 885 676 938 l 197 938 b 89 832 142 938 94 885 l 6 42 b 114 -74 0 -21 50 -74 l 226 -74 b 376 68 308 -74 376 -15 l 376 436 b 407 471 376 454 389 471 b 442 439 426 472 442 457 l 442 68 b 592 -74 442 -15 508 -74 l 704 -74 b 811 42 768 -74 818 -21 z m 408 671 b 376 704 390 671 376 686 b 408 738 376 722 390 738 b 442 704 426 738 442 722 b 408 671 442 686 426 671 z "},"B":{"ha":817,"x_min":0,"x_max":0,"o":"m 811 42 l 775 390 b 693 506 769 440 739 485 l 603 547 b 603 597 582 557 582 588 l 690 643 b 739 733 724 660 743 696 l 729 832 b 621 938 724 885 676 938 l 197 938 b 89 832 142 938 94 885 l 6 42 b 114 -74 0 -21 50 -74 l 704 -74 b 811 42 768 -74 818 -21 z m 442 158 b 408 126 442 140 426 126 b 376 158 390 126 376 140 l 376 439 b 408 471 376 457 390 471 b 442 439 426 471 442 457 z m 408 671 b 376 704 390 671 376 686 b 408 738 376 722 390 738 b 442 704 426 738 442 722 b 408 671 442 686 426 671 z "},"C":{"ha":817,"x_min":0,"x_max":0,"o":"m 681 539 l 529 539 b 442 450 481 539 442 499 l 442 161 b 411 126 442 143 428 126 b 376 158 392 125 376 140 l 376 703 b 407 738 376 721 389 736 b 442 704 426 739 442 724 l 442 688 b 525 604 442 642 479 604 l 661 604 b 743 696 710 604 749 647 l 729 832 b 621 938 724 885 676 938 l 197 938 b 89 832 142 938 94 885 l 6 42 b 114 -74 0 -21 50 -74 l 704 -74 b 811 42 768 -74 818 -21 l 768 460 b 681 539 763 504 725 539 z "},"D":{"ha":817,"x_min":0,"x_max":0,"o":"m 811 42 l 729 832 b 621 938 724 885 676 938 l 444 938 b 371 881 410 938 381 914 b 336 881 367 863 340 863 l 336 881 b 251 938 326 914 286 938 l 197 938 b 89 832 142 938 94 885 l 6 42 b 114 -74 0 -21 50 -74 l 704 -74 b 811 42 768 -74 818 -21 z m 442 158 b 408 126 442 140 426 126 b 376 158 390 126 376 140 l 376 704 b 408 738 376 722 390 738 b 442 704 426 738 442 722 z "},"E":{"ha":817,"x_min":0,"x_max":0,"o":"m 704 -74 b 811 42 768 -74 818 -21 l 793 222 b 711 296 788 264 753 296 l 517 296 b 442 221 475 296 442 263 l 442 158 b 407 126 442 140 426 125 b 376 161 389 128 376 143 l 376 303 b 444 371 376 340 407 371 l 694 371 b 768 454 739 371 774 410 l 765 485 b 668 571 760 533 718 571 l 408 571 b 376 604 390 571 376 586 l 376 604 b 408 638 376 622 390 638 l 653 638 b 739 733 704 638 744 682 l 729 832 b 621 938 724 885 676 938 l 197 938 b 89 832 142 938 94 885 l 6 42 b 114 -74 0 -21 50 -74 z "},"F":{"ha":781,"x_min":0,"x_max":0,"o":"m 701 306 b 775 388 746 306 779 343 l 771 431 b 688 506 767 474 731 506 l 431 506 b 376 560 400 506 376 529 l 376 704 b 408 738 376 722 390 738 b 432 728 418 738 426 733 b 442 704 438 722 442 714 l 442 625 b 494 571 442 596 465 571 l 653 571 b 746 674 708 571 751 619 l 729 832 b 621 938 724 885 676 938 l 197 938 b 89 832 142 938 94 885 l 6 42 b 114 -74 0 -21 50 -74 l 250 -74 b 376 51 319 -74 376 -18 l 376 254 b 428 306 376 282 399 306 z "},"H":{"ha":817,"x_min":0,"x_max":0,"o":"m 811 42 l 729 832 b 621 938 724 885 676 938 l 544 938 b 442 836 488 938 442 892 l 442 704 b 408 671 442 686 426 671 l 408 671 b 376 704 390 671 376 686 l 376 836 b 274 938 376 892 331 938 l 197 938 b 89 832 142 938 94 885 l 6 42 b 114 -74 0 -21 50 -74 l 233 -74 b 376 68 313 -74 376 -11 l 376 439 b 408 471 376 457 390 471 l 408 471 b 442 439 426 471 442 457 l 442 68 b 583 -74 442 -11 506 -74 l 704 -74 b 811 42 768 -74 818 -21 z "},"I":{"ha":468,"x_min":0,"x_max":0,"o":"m 379 832 b 271 938 374 885 326 938 l 197 938 b 89 832 142 938 94 885 l 6 42 b 114 -74 0 -21 50 -74 l 356 -74 b 463 42 418 -74 468 -21 z "},"J":{"ha":817,"x_min":0,"x_max":0,"o":"m 811 42 l 729 832 b 621 938 724 885 676 938 l 550 938 b 442 829 490 938 442 889 l 442 471 l 442 158 b 408 126 442 140 426 126 l 408 126 b 376 158 390 126 376 140 l 376 368 b 274 471 376 425 329 471 l 154 471 b 40 368 96 471 46 426 l 6 42 b 114 -74 0 -21 50 -74 l 704 -74 b 811 42 768 -74 818 -21 z "},"K":{"ha":817,"x_min":0,"x_max":0,"o":"m 811 42 l 775 396 b 696 499 769 442 739 482 l 567 549 b 567 596 546 557 546 586 l 690 647 b 739 732 724 663 743 696 l 729 832 b 621 938 724 885 676 938 l 547 938 b 442 833 489 938 442 890 l 442 707 b 411 671 442 689 428 672 b 376 704 392 671 376 686 l 376 833 b 271 938 376 890 329 938 l 197 938 b 89 832 142 938 94 885 l 6 42 b 114 -74 0 -21 50 -74 l 261 -74 b 376 42 325 -74 376 -22 b 376 439 376 167 376 361 b 408 471 376 457 390 471 l 408 471 b 442 439 426 471 442 457 b 442 42 442 361 442 167 b 557 -74 442 -22 493 -74 l 704 -74 b 811 42 768 -74 818 -21 z "},"L":{"ha":817,"x_min":0,"x_max":0,"o":"m 811 42 l 789 251 b 679 351 783 308 736 351 l 519 351 b 442 274 476 351 442 317 l 442 160 b 415 126 442 144 431 129 b 376 158 394 122 376 139 b 376 831 376 158 376 618 b 269 938 376 890 328 938 l 197 938 b 89 832 142 938 94 885 l 6 42 b 114 -74 0 -21 50 -74 l 704 -74 b 811 42 768 -74 818 -21 z "},"M":{"ha":940,"x_min":0,"x_max":0,"o":"m 935 42 l 853 832 b 744 938 847 885 799 938 l 601 938 b 492 829 540 938 492 889 l 492 772 b 461 738 492 754 479 739 b 426 771 442 736 426 751 l 426 829 b 317 938 426 889 378 938 l 197 938 b 89 832 142 938 94 885 l 6 42 b 114 -74 0 -21 50 -74 l 206 -74 b 304 25 260 -74 304 -31 l 304 381 b 335 415 304 399 317 414 b 369 382 354 415 369 401 l 369 26 b 471 -74 369 -29 415 -74 l 471 -74 b 571 26 526 -74 571 -29 l 571 381 b 597 414 571 397 582 411 b 638 382 618 418 638 403 l 638 26 b 738 -74 638 -29 682 -74 l 828 -74 b 935 42 892 -74 942 -21 z "},"N":{"ha":817,"x_min":0,"x_max":0,"o":"m 704 -74 b 811 42 768 -74 818 -21 l 729 832 b 621 938 724 885 676 938 l 621 938 b 524 842 567 938 524 894 l 524 569 b 485 538 524 550 506 533 b 458 571 469 540 458 556 l 458 842 b 361 938 458 894 415 938 l 197 938 b 89 832 142 938 94 885 l 6 42 b 114 -74 0 -21 50 -74 l 197 -74 b 293 22 250 -74 293 -31 l 293 293 b 333 325 293 314 313 329 b 360 292 349 322 360 308 l 360 22 b 456 -74 360 -31 403 -74 z "},"O":{"ha":817,"x_min":0,"x_max":0,"o":"m 811 40 l 729 832 b 621 938 724 885 676 938 l 197 938 b 89 832 142 938 94 885 l 6 40 b 114 -75 0 -21 50 -75 l 704 -75 b 811 40 768 -75 818 -21 z m 442 158 b 408 126 442 140 426 126 b 376 158 390 126 376 140 l 376 704 b 408 738 376 722 390 738 b 442 704 426 738 442 722 z "},"P":{"ha":778,"x_min":0,"x_max":0,"o":"m 772 411 l 767 471 l 729 831 b 621 938 724 885 676 938 l 197 938 b 89 831 142 938 94 885 l 6 40 b 114 -75 0 -21 50 -75 l 253 -75 b 376 49 321 -75 376 -19 l 376 233 b 411 269 376 253 392 269 l 644 269 b 772 411 721 269 781 335 z m 442 504 b 408 471 442 486 426 471 b 376 504 390 471 376 486 l 376 703 b 403 736 376 718 386 733 b 442 704 424 740 442 725 z "},"Q":{"ha":817,"x_min":0,"x_max":0,"o":"m 811 42 l 811 42 b 717 126 807 89 765 126 l 533 125 b 500 157 515 125 500 139 l 500 157 b 533 190 500 176 515 190 l 686 192 b 785 300 744 192 790 243 l 729 832 b 621 938 724 885 676 938 l 197 938 b 89 832 142 938 94 885 l 6 42 b 114 -75 0 -21 50 -75 l 704 -75 b 811 42 768 -75 818 -21 z m 401 736 b 432 728 414 739 425 735 b 442 704 438 722 442 714 l 442 222 b 408 189 442 204 426 189 l 408 189 b 376 222 390 189 376 204 l 376 703 b 401 736 376 718 386 733 z "},"R":{"ha":817,"x_min":0,"x_max":0,"o":"m 811 42 l 775 396 b 696 499 769 442 739 482 l 567 549 b 567 596 546 557 546 586 l 690 647 b 739 732 724 663 743 696 l 729 832 b 621 938 724 885 676 938 l 614 938 l 547 938 l 271 938 l 235 938 l 197 938 b 89 832 142 938 94 885 l 6 42 b 114 -74 0 -21 50 -74 l 261 -74 b 376 42 325 -74 376 -22 b 376 439 376 167 376 361 b 408 471 376 457 390 471 b 442 439 426 471 442 457 b 442 42 442 361 442 167 b 557 -74 442 -22 493 -74 l 704 -74 b 811 42 768 -74 818 -21 z m 411 671 b 376 704 392 671 376 686 l 376 704 b 408 738 376 722 390 738 l 411 738 b 442 706 428 738 442 724 l 442 706 b 411 671 442 689 428 672 z "},"S":{"ha":817,"x_min":0,"x_max":0,"o":"m 704 -74 b 811 42 768 -74 818 -21 l 774 404 l 767 471 l 767 471 l 757 567 b 640 671 750 626 700 671 l 408 671 b 376 704 390 671 376 686 l 376 704 b 407 738 376 722 390 736 b 408 738 408 738 408 738 b 411 738 410 738 410 738 l 646 738 b 729 829 696 738 735 781 l 729 832 b 621 938 724 885 676 938 l 197 938 b 89 832 142 938 94 885 l 79 738 l 72 671 l 58 539 b 118 471 54 503 82 471 l 390 471 b 442 419 418 471 442 447 l 442 160 b 407 126 442 140 426 125 b 376 161 389 128 376 143 l 376 342 b 313 404 376 376 347 404 l 114 404 b 38 335 75 404 42 375 l 6 42 b 114 -74 0 -21 50 -74 z "},"T":{"ha":679,"x_min":0,"x_max":0,"o":"m 476 483 l 589 483 b 674 578 639 483 679 528 l 660 832 b 551 938 654 885 607 938 l 128 938 b 19 832 72 938 25 885 l 6 578 b 92 483 1 528 40 483 l 203 483 l 154 42 b 242 -74 149 -21 190 -74 l 438 -74 b 525 42 490 -74 531 -21 z "},"U":{"ha":817,"x_min":0,"x_max":0,"o":"m 704 -75 b 811 40 768 -75 818 -21 l 729 831 b 621 938 724 885 676 938 l 549 938 b 442 831 489 938 442 890 l 442 158 b 403 126 442 139 424 122 b 376 160 386 129 376 144 l 376 831 b 269 938 376 890 328 938 l 197 938 b 89 831 142 938 94 885 l 6 40 b 114 -75 0 -21 50 -75 l 382 -75 b 425 -60 399 -75 414 -69 b 450 -21 438 -50 446 -36 b 471 -4 453 -10 461 -4 b 490 -21 479 -4 489 -10 b 560 -75 499 -51 526 -75 z "},"V":{"ha":817,"x_min":0,"x_max":0,"o":"m 811 40 l 729 832 b 621 938 724 885 676 938 l 549 938 b 442 831 489 938 442 889 l 442 704 l 442 467 l 442 161 b 411 126 442 143 428 126 b 376 158 392 125 376 140 l 376 467 l 376 704 l 376 831 b 269 938 376 889 328 938 l 197 938 b 89 832 142 938 94 885 l 6 40 b 114 -75 0 -21 50 -75 l 704 -75 b 811 40 768 -75 818 -21 z "},"W":{"ha":940,"x_min":0,"x_max":0,"o":"m 935 42 l 853 832 b 744 938 847 885 799 938 l 744 938 b 638 831 685 938 638 890 l 638 503 b 604 469 638 485 622 469 l 604 469 b 571 503 586 469 571 485 l 571 724 b 471 825 571 779 526 825 l 471 825 b 369 724 415 825 369 779 l 369 504 b 343 471 369 489 358 474 b 304 503 322 467 304 483 l 304 831 b 197 938 304 890 256 938 l 197 938 b 89 832 142 938 94 885 l 6 42 b 114 -74 0 -21 50 -74 l 338 -74 b 449 36 399 -74 449 -25 l 449 215 b 481 250 449 233 463 250 b 515 218 499 251 515 236 l 515 36 b 626 -74 515 -25 564 -74 l 828 -74 b 935 42 892 -74 942 -21 z "},"X":{"ha":817,"x_min":0,"x_max":0,"o":"m 811 40 l 775 396 b 696 499 769 442 739 482 l 567 549 b 567 596 546 557 546 586 l 690 647 b 739 732 724 661 743 696 l 729 831 b 621 938 724 885 676 938 l 547 938 b 442 832 489 938 442 890 l 442 706 b 411 671 442 688 428 672 b 408 671 410 671 410 671 b 407 671 408 671 407 671 b 376 706 389 672 376 688 l 376 832 b 271 938 376 890 329 938 l 197 938 b 89 831 142 938 94 885 l 78 732 b 128 647 75 696 94 661 l 251 596 b 250 549 272 586 271 557 l 121 499 b 43 396 78 482 49 442 l 6 40 b 114 -75 0 -21 50 -75 l 261 -75 b 376 40 325 -75 376 -24 b 376 438 376 167 376 361 b 408 471 376 456 390 471 b 442 438 426 471 442 456 b 442 40 442 361 442 167 b 557 -75 442 -24 493 -75 l 704 -75 b 811 40 768 -75 818 -21 z "},"Y":{"ha":817,"x_min":0,"x_max":0,"o":"m 704 -75 b 811 40 768 -75 818 -21 l 767 471 l 760 536 l 729 831 b 621 938 724 885 676 938 l 547 938 b 442 832 489 938 442 890 l 442 704 b 408 671 442 686 426 671 l 408 671 b 376 704 390 671 376 686 l 376 832 b 269 938 376 890 329 938 l 197 938 b 89 831 142 938 94 885 l 69 582 b 169 471 64 522 110 471 l 382 471 b 442 411 415 471 442 444 l 442 158 b 403 126 442 139 424 122 b 376 160 386 129 376 144 l 376 333 b 304 406 376 374 343 406 l 169 406 b 39 288 82 406 56 381 l 6 40 b 114 -75 0 -21 50 -75 z "},"Z":{"ha":817,"x_min":0,"x_max":0,"o":"m 704 -74 b 811 42 768 -74 818 -21 l 796 192 b 717 264 792 233 757 264 l 517 264 b 442 189 475 264 442 231 l 442 163 b 408 131 442 144 426 131 b 376 163 390 131 376 144 l 376 254 b 450 329 376 296 410 329 l 693 329 b 772 417 740 329 778 371 l 760 533 l 729 832 b 621 938 724 885 676 938 l 197 938 b 190 938 194 938 192 938 b 89 832 138 933 94 883 l 78 733 l 74 690 b 156 600 69 642 107 600 l 318 600 b 376 657 350 600 376 625 l 376 704 b 393 733 376 717 382 728 b 408 738 397 736 403 738 b 425 733 415 738 421 736 b 442 704 435 726 442 717 l 442 592 b 385 533 442 560 417 533 l 132 533 b 50 460 90 533 54 503 l 36 329 l 6 42 b 114 -74 0 -21 50 -74 z "},"a":{"ha":817,"x_min":0,"x_max":0,"o":"m 704 938 l 114 938 b 6 822 50 938 0 885 l 89 32 b 197 -74 94 -22 142 -74 l 275 -74 b 376 26 331 -74 376 -29 l 376 157 b 407 192 376 175 389 192 b 442 160 426 193 442 178 l 442 25 b 542 -74 442 -29 486 -74 l 621 -74 b 729 32 676 -74 724 -22 l 811 822 b 704 938 818 885 768 938 z m 442 425 b 408 392 442 407 426 392 b 376 425 390 392 376 407 l 376 704 b 408 738 376 722 390 738 b 442 704 426 738 442 722 z "},"b":{"ha":817,"x_min":0,"x_max":0,"o":"m 704 938 l 114 938 b 6 822 50 938 0 885 l 89 32 b 197 -74 94 -22 142 -74 l 621 -74 b 729 32 676 -74 724 -22 l 739 131 b 690 219 743 168 724 203 l 603 265 b 603 317 582 276 582 307 l 693 358 b 775 472 739 379 769 422 l 811 822 b 704 938 818 885 768 938 z m 376 704 b 408 738 376 722 390 738 b 442 704 426 738 442 722 l 442 425 b 408 392 442 407 426 392 b 376 425 390 392 376 407 z m 410 126 b 378 160 392 126 378 140 b 410 192 378 178 392 192 b 443 160 428 192 443 178 b 410 126 443 140 428 126 z "},"c":{"ha":817,"x_min":0,"x_max":0,"o":"m 681 325 b 768 404 725 325 763 358 l 811 822 b 704 938 818 885 768 938 l 114 938 b 6 822 50 938 0 885 l 89 32 b 197 -74 94 -22 142 -74 l 621 -74 b 729 32 676 -74 724 -22 l 743 168 b 661 260 749 217 710 260 l 525 260 b 442 176 479 260 442 222 l 442 158 b 407 126 442 140 426 125 b 376 161 389 126 376 143 l 376 704 b 411 738 376 724 392 739 b 442 703 428 736 442 721 l 442 413 b 529 325 442 364 481 325 z "},"d":{"ha":817,"x_min":0,"x_max":0,"o":"m 704 938 l 463 938 b 374 868 419 938 383 910 l 374 868 b 342 868 369 851 346 851 l 342 868 b 253 938 332 908 296 938 l 114 938 b 6 822 50 938 0 885 l 89 32 b 197 -74 94 -22 142 -74 l 621 -74 b 729 32 676 -74 724 -22 l 811 822 b 704 938 818 885 768 938 z m 442 158 b 408 126 442 140 426 126 b 376 158 390 126 376 140 l 376 704 b 408 738 376 722 390 738 b 442 704 426 738 442 722 z "},"e":{"ha":817,"x_min":0,"x_max":0,"o":"m 704 938 l 114 938 b 6 822 50 938 0 885 l 89 32 b 197 -74 94 -22 142 -74 l 621 -74 b 729 32 676 -74 724 -22 l 739 129 b 653 226 744 182 704 226 l 408 226 b 376 260 390 226 376 242 l 376 260 b 408 292 376 278 390 292 l 668 292 b 765 379 718 292 760 329 l 768 410 b 694 493 774 454 739 493 l 444 493 b 376 561 407 493 376 524 l 376 703 b 407 738 376 721 389 736 b 442 704 426 739 442 724 l 442 642 b 517 567 442 601 475 567 l 711 567 b 793 640 753 567 788 599 l 811 822 b 704 938 818 885 768 938 z "},"f":{"ha":817,"x_min":0,"x_max":0,"o":"m 811 822 b 704 938 818 885 768 938 l 114 938 b 6 822 50 938 0 885 l 89 32 b 197 -74 94 -22 142 -74 l 285 -74 b 376 17 335 -74 376 -33 l 376 251 b 429 306 376 281 400 306 l 701 306 b 764 361 733 306 760 329 l 771 436 b 708 506 775 474 746 506 l 435 506 b 376 564 403 506 376 532 l 376 704 b 411 738 376 724 392 739 b 442 703 428 736 442 721 l 442 651 b 521 571 442 607 478 571 l 693 571 b 794 663 746 571 789 611 l 803 738 z "},"g":{"ha":817,"x_min":0,"x_max":0,"o":"m 704 938 l 114 938 b 6 822 50 938 0 885 l 89 32 b 197 -74 94 -22 142 -74 l 621 -74 b 729 32 676 -74 724 -22 l 753 258 l 753 260 l 765 376 b 690 460 769 421 735 460 l 442 460 b 376 525 406 460 376 489 l 376 703 b 407 738 376 721 389 736 b 442 704 426 739 442 724 l 442 589 b 506 525 442 553 471 525 l 714 525 b 788 590 751 525 783 553 l 811 822 b 704 938 818 885 768 938 z m 442 226 l 442 161 b 411 126 442 143 429 128 b 386 136 401 125 392 129 b 376 158 379 142 376 150 l 376 226 b 408 260 376 244 390 260 l 408 260 b 442 226 426 260 442 244 z "},"h":{"ha":817,"x_min":0,"x_max":0,"o":"m 6 822 l 89 32 b 197 -74 94 -22 142 -74 l 274 -74 b 376 28 331 -74 376 -29 l 376 158 b 408 192 376 178 390 192 l 408 192 b 442 158 426 192 442 178 l 442 28 b 544 -74 442 -29 488 -74 l 621 -74 b 729 32 676 -74 724 -22 l 811 822 b 704 938 818 885 768 938 l 583 938 b 442 796 506 938 442 874 l 442 425 b 408 392 442 407 426 392 l 408 392 b 376 425 390 392 376 407 l 376 796 b 233 938 376 874 313 938 l 114 938 b 6 822 50 938 0 885 z "},"i":{"ha":468,"x_min":0,"x_max":0,"o":"m 89 32 b 197 -74 94 -22 142 -74 l 271 -74 b 379 32 326 -74 374 -22 l 463 822 b 356 938 468 885 418 938 l 114 938 b 6 822 50 938 0 885 z "},"j":{"ha":764,"x_min":0,"x_max":0,"o":"m 651 938 l 465 938 b 389 861 424 938 389 903 l 389 392 l 389 161 b 357 126 389 143 375 126 b 322 158 339 125 322 140 l 322 319 b 250 392 322 360 290 392 l 76 392 b 6 314 35 392 1 356 l 35 32 b 143 -74 40 -22 89 -74 l 567 -74 b 675 32 622 -74 669 -22 l 758 822 b 651 938 764 885 715 938 z "},"k":{"ha":817,"x_min":0,"x_max":0,"o":"m 811 822 b 704 938 818 885 768 938 l 557 938 b 442 822 493 938 442 886 b 442 425 442 696 442 501 b 408 392 442 407 426 392 l 408 392 b 376 425 390 392 376 407 b 376 822 376 501 376 696 b 261 938 376 886 325 938 l 114 938 b 6 822 50 938 0 885 l 89 32 b 197 -74 94 -22 142 -74 l 271 -74 b 376 31 329 -74 376 -28 l 376 158 b 411 192 376 178 392 193 b 442 157 428 192 442 175 l 442 31 b 547 -74 442 -28 489 -74 l 621 -74 b 729 32 676 -74 724 -22 l 739 132 b 690 215 743 168 724 201 l 567 268 b 567 315 546 276 546 307 l 696 365 b 775 467 739 382 769 421 z "},"l":{"ha":756,"x_min":0,"x_max":0,"o":"m 442 240 l 442 161 b 411 126 442 143 428 126 b 376 158 392 125 376 140 l 376 317 l 376 861 b 300 938 376 904 342 938 l 114 938 b 6 822 50 938 0 885 l 89 32 b 197 -74 94 -22 142 -74 l 621 -74 b 729 32 676 -74 724 -22 l 750 233 b 675 317 754 278 719 317 l 518 317 b 442 240 476 317 442 282 z "},"m":{"ha":940,"x_min":0,"x_max":0,"o":"m 828 938 l 613 938 b 503 829 553 938 503 889 l 503 771 b 471 738 503 753 489 738 l 471 738 b 438 771 453 738 438 753 l 438 829 b 329 938 438 889 389 938 l 114 938 b 6 822 50 938 0 885 l 89 32 b 197 -74 94 -22 142 -74 l 197 -74 b 304 32 256 -74 304 -26 l 304 369 b 335 404 304 388 317 403 b 369 371 354 406 369 390 l 369 26 b 471 -74 369 -29 415 -74 l 471 -74 b 571 26 526 -74 571 -29 l 571 369 b 603 404 571 388 585 403 b 638 371 621 406 638 390 l 638 32 b 744 -74 638 -26 685 -74 l 744 -74 b 853 32 799 -74 847 -22 l 935 822 b 828 938 942 885 892 938 z "},"n":{"ha":817,"x_min":0,"x_max":0,"o":"m 114 938 b 6 822 50 938 0 885 l 89 32 b 197 -74 94 -22 142 -74 l 197 -74 b 293 22 250 -74 293 -31 l 293 293 b 333 325 293 314 313 329 b 360 292 349 322 360 308 l 360 22 b 456 -74 360 -31 403 -74 l 621 -74 b 729 32 676 -74 724 -22 l 811 822 b 704 938 818 885 768 938 l 621 938 b 524 842 567 938 524 894 l 524 571 b 485 538 524 550 506 533 b 458 571 469 540 458 556 l 458 842 b 361 938 458 894 415 938 z "},"o":{"ha":817,"x_min":0,"x_max":0,"o":"m 704 938 l 114 938 b 6 822 50 938 0 885 l 89 32 b 197 -74 94 -22 142 -74 l 621 -74 b 729 32 676 -74 724 -22 l 811 822 b 704 938 818 885 768 938 z m 442 158 b 408 126 442 140 426 126 b 376 158 390 126 376 140 l 376 704 b 408 738 376 722 390 738 b 442 704 426 738 442 722 z "},"p":{"ha":817,"x_min":0,"x_max":0,"o":"m 704 938 l 114 938 b 6 822 50 938 0 885 l 89 32 b 197 -74 94 -22 142 -74 l 269 -74 b 376 32 328 -74 376 -26 l 376 219 b 425 269 376 247 397 269 l 658 269 b 764 364 713 269 758 310 l 775 471 l 811 822 b 704 938 818 885 768 938 z m 408 471 l 408 471 b 376 504 390 471 376 486 l 376 703 b 407 738 376 721 389 736 b 442 704 426 739 442 724 l 442 504 b 408 471 442 486 426 471 z "},"q":{"ha":817,"x_min":0,"x_max":0,"o":"m 539 126 b 507 161 521 126 506 142 b 542 192 507 179 524 192 l 663 192 b 754 275 710 192 750 228 l 811 822 b 704 938 818 885 768 938 l 114 938 b 6 822 50 938 0 885 l 89 32 b 197 -74 94 -22 142 -74 l 621 -74 b 729 32 676 -74 724 -22 l 729 32 b 644 126 735 82 694 126 z m 442 225 b 408 192 442 207 426 192 b 376 225 390 192 376 207 l 376 704 b 408 738 376 722 390 738 b 442 704 426 738 442 722 z "},"r":{"ha":817,"x_min":0,"x_max":0,"o":"m 704 938 l 669 938 l 669 938 l 165 938 l 165 938 l 114 938 b 6 822 50 938 0 885 l 89 32 b 197 -74 94 -22 142 -74 l 271 -74 b 376 31 329 -74 376 -28 l 376 158 b 411 192 376 178 392 193 b 442 157 428 192 442 175 l 442 31 b 547 -74 442 -28 489 -74 l 621 -74 b 729 32 676 -74 724 -22 l 739 132 b 690 215 743 168 724 201 l 567 268 b 567 315 546 276 546 307 l 696 365 b 775 467 739 382 769 421 l 811 822 b 704 938 818 885 768 938 z m 407 392 b 376 426 389 393 376 410 b 376 704 376 483 376 599 b 408 738 376 722 390 738 l 408 738 b 442 704 426 738 442 722 b 442 425 442 597 442 481 b 407 392 442 407 426 392 z "},"s":{"ha":817,"x_min":0,"x_max":0,"o":"m 114 938 b 6 822 50 938 0 885 l 44 458 l 51 393 l 51 393 l 61 297 b 178 192 67 238 118 192 l 408 192 b 442 158 426 192 442 178 l 442 158 b 411 126 442 142 428 126 b 408 126 410 126 410 126 b 407 126 408 126 408 126 l 172 126 b 89 33 122 126 83 83 l 89 32 b 197 -74 94 -22 142 -74 l 621 -74 b 729 32 676 -74 724 -22 l 739 126 l 746 192 l 760 325 b 699 393 764 361 735 393 l 428 393 b 376 444 399 393 376 415 l 376 704 b 411 738 376 724 392 739 b 442 703 428 736 442 721 l 442 522 b 504 458 442 488 469 458 l 703 458 b 781 529 743 458 776 489 l 811 822 b 704 938 818 885 768 938 z "},"t":{"ha":817,"x_min":0,"x_max":0,"o":"m 811 822 b 704 938 818 885 768 938 l 114 938 b 6 822 50 938 0 885 l 33 558 b 117 483 38 517 74 483 l 138 483 b 225 406 182 483 219 450 l 264 32 b 372 -74 269 -22 317 -74 l 446 -74 b 554 32 501 -74 549 -22 l 593 406 b 679 483 597 450 635 483 l 700 483 b 783 558 743 483 779 517 z "},"u":{"ha":817,"x_min":0,"x_max":0,"o":"m 704 938 l 561 938 b 442 818 494 938 442 885 l 442 161 b 411 126 442 143 428 126 b 376 158 392 125 376 140 l 376 818 b 257 938 376 885 322 938 l 114 938 b 6 822 50 938 0 885 l 89 32 b 197 -74 94 -22 142 -74 l 404 -74 b 446 -43 424 -74 440 -61 l 450 -25 b 492 -25 456 -3 486 -3 l 496 -43 b 536 -74 500 -61 517 -74 l 621 -74 b 729 32 676 -74 724 -22 l 811 822 b 704 938 818 885 768 938 z "},"v":{"ha":817,"x_min":0,"x_max":0,"o":"m 704 938 l 558 938 b 442 821 494 938 442 885 l 442 161 b 411 126 442 143 428 126 b 376 158 392 125 376 140 l 376 821 b 260 938 376 885 324 938 l 114 938 b 6 822 50 938 0 885 l 89 32 b 197 -74 94 -22 142 -74 l 621 -74 b 729 32 676 -74 724 -22 l 811 822 b 704 938 818 885 768 938 z "},"w":{"ha":940,"x_min":0,"x_max":0,"o":"m 828 938 l 732 938 b 638 842 679 938 638 894 l 638 483 b 606 449 638 465 624 450 b 571 482 588 447 571 463 l 571 731 b 471 832 571 786 526 832 l 471 832 b 369 731 415 832 369 786 l 369 482 b 343 449 369 467 358 451 b 304 482 322 444 304 461 l 304 842 b 208 938 304 894 261 938 l 114 938 b 6 822 50 938 0 885 l 89 32 b 197 -74 94 -22 142 -74 l 354 -74 b 449 21 407 -74 449 -32 l 449 238 b 481 272 449 256 463 271 b 515 239 499 274 515 258 l 515 21 b 610 -74 515 -32 557 -74 l 744 -74 b 853 32 799 -74 847 -22 l 935 822 b 828 938 942 885 892 938 z "},"x":{"ha":817,"x_min":0,"x_max":0,"o":"m 6 822 l 43 467 b 121 365 49 421 78 382 l 250 315 b 251 268 271 307 272 276 l 128 215 b 78 132 94 201 75 168 l 89 32 b 197 -74 94 -22 142 -74 l 271 -74 b 376 31 329 -74 376 -28 l 376 157 b 407 192 376 175 389 192 b 408 192 407 192 408 192 b 411 192 410 192 410 192 b 442 157 428 192 442 175 l 442 31 b 547 -74 442 -28 489 -74 l 621 -74 b 729 32 676 -74 724 -22 l 739 132 b 690 215 743 168 724 201 l 567 268 b 567 315 546 276 546 307 l 696 365 b 775 467 739 382 769 421 l 811 822 b 704 938 818 885 768 938 l 557 938 b 442 822 493 938 442 886 b 442 425 442 696 442 501 b 408 392 442 407 426 392 b 376 425 390 392 376 407 b 376 822 376 501 376 696 b 261 938 376 886 325 938 l 114 938 b 6 822 50 938 0 885 z "},"y":{"ha":817,"x_min":0,"x_max":0,"o":"m 704 938 l 558 938 b 442 821 494 938 442 885 l 442 693 b 415 660 442 676 431 663 b 376 692 394 656 376 671 l 376 821 b 258 938 376 885 324 938 l 114 938 b 6 822 50 938 0 885 l 38 526 b 113 458 42 488 74 458 l 400 458 b 442 417 424 458 442 440 l 442 160 b 408 126 442 140 426 126 b 386 136 400 126 392 129 b 376 160 379 142 376 150 l 376 354 b 338 392 376 375 358 392 l 118 392 b 58 326 82 392 54 361 l 89 32 b 197 -74 94 -22 142 -74 l 621 -74 b 729 32 676 -74 724 -22 l 767 392 l 811 822 b 704 938 818 885 768 938 z "},"z":{"ha":817,"x_min":0,"x_max":0,"o":"m 114 938 b 6 822 50 938 0 885 l 22 671 b 101 600 26 631 60 600 l 301 600 b 376 675 342 600 376 633 l 376 700 b 408 733 376 718 390 733 b 442 700 426 733 442 718 l 442 608 b 367 535 442 568 408 535 l 125 535 b 46 446 78 535 40 493 l 57 329 l 89 32 b 197 -74 94 -22 142 -74 l 621 -74 b 628 -74 624 -74 625 -74 b 729 32 679 -69 724 -19 l 739 131 l 743 172 b 661 264 749 221 711 264 l 499 264 b 442 207 467 264 442 238 l 442 160 b 425 131 442 147 435 136 b 408 126 421 128 415 126 b 393 131 403 126 397 128 b 376 160 382 136 376 147 l 376 272 b 433 329 376 304 401 329 l 686 329 b 768 403 728 329 764 361 l 782 535 l 811 822 b 704 938 818 885 768 938 z "},"G":{"ha":817,"x_min":0,"x_max":0,"o":"m 811 42 l 768 460 b 681 539 763 504 725 539 l 529 539 b 529 539 529 539 529 539 l 436 539 b 376 599 403 539 376 565 l 376 703 b 407 738 376 721 389 736 b 442 704 426 739 442 724 l 442 688 b 525 604 442 642 479 604 l 661 604 b 743 696 710 604 749 647 l 729 832 b 621 938 724 885 676 938 l 197 938 b 89 832 142 938 94 885 l 6 42 b 114 -74 0 -21 50 -74 l 704 -74 b 811 42 768 -74 818 -21 z m 411 126 b 376 158 392 125 376 140 l 376 306 b 408 338 376 324 390 338 l 408 338 b 442 306 426 338 442 324 l 442 161 b 411 126 442 143 428 126 z "}}}
